<svg class="img-fluid" id="outputsvg" xmlns="http://www.w3.org/2000/svg" style="transform: none; transform-origin: 50% 50% 0px; cursor: move; max-height: none;" width="663" height="663" viewBox="0 0 6630 6630"><g id="l1OOde9H95OIjmcE5b1FbEy" fill="rgb(253,252,252)" style="transform: none; --darkreader-inline-fill: #e6e4e1;" data-darkreader-inline-fill=""><g style="transform: none;"><path id="pS54KWj1p" d="M3077 4736 c-52 -19 -76 -42 -103 -101 -41 -86 -29 -196 31 -287 42 -64 135 -97 235 -83 68 9 110 40 143 105 25 49 28 63 24 126 -6 109 -58 198 -133 230 -50 21 -153 26 -197 10z m152 -85 c39 -39 42 -228 4 -279 -35 -47 -92 -41 -120 11 -20 39 -23 164 -4 219 21 64 81 88 120 49z"></path><path id="pgNfDeZuE" d="M1740 4731 c-30 -3 -54 -9 -52 -13 1 -5 2 -12 2 -17 0 -5 9 -13 21 -16 19 -6 20 -12 14 -53 -14 -94 -12 -92 -124 -92 l-100 0 -10 38 c-16 54 -14 76 9 105 35 44 28 47 -100 47 -66 0 -120 -4 -120 -8 0 -4 16 -23 35 -42 31 -30 44 -62 110 -264 42 -127 83 -247 93 -266 22 -44 53 -60 124 -60 45 0 59 4 66 18 5 9 44 120 86 246 83 246 100 286 140 329 14 15 26 32 26 36 0 20 -95 25 -220 12z m-70 -282 c0 -16 -51 -181 -63 -204 -9 -17 -16 -3 -47 90 -21 61 -35 113 -33 118 7 12 143 8 143 -4z"></path><path id="pik08Wf7B" d="M2078 4708 c-21 -30 -24 -48 -29 -183 -6 -148 -12 -185 -30 -185 -5 0 -15 -12 -21 -26 -17 -36 0 -44 93 -44 l76 0 7 53 c3 28 6 105 6 169 0 131 8 165 42 170 30 5 80 -8 90 -24 4 -7 8 -69 8 -137 0 -119 -1 -127 -26 -163 -39 -55 -29 -68 55 -68 108 0 101 -13 101 181 0 150 2 174 20 209 31 61 27 70 -27 71 -69 2 -87 -1 -96 -17 -6 -11 -14 -10 -45 6 -28 15 -56 20 -119 20 -81 0 -82 0 -105 -32z"></path><path id="p14DkqNcHe" d="M2663 4730 c-44 -18 -57 -64 -62 -225 l-6 -150 -27 -13 c-39 -18 -37 -49 4 -60 28 -7 34 -15 52 -72 23 -71 39 -82 76 -52 17 14 25 33 29 68 l6 49 80 5 80 5 0 30 0 30 -77 3 -78 3 -2 32 c-4 96 6 273 16 280 6 4 37 5 69 1 l57 -6 0 31 c0 18 -6 33 -12 35 -31 10 -185 14 -205 6z"></path><path id="pnyEv8uQL" d="M2402 3862 c-9 -7 -12 -58 -10 -223 l3 -214 64 -3 c35 -2 69 2 74 7 6 6 9 42 8 82 l-2 72 26 -5 c25 -5 27 -4 22 26 -3 17 -1 52 5 79 7 36 14 47 29 47 12 0 19 7 19 20 0 25 -31 27 -65 4 -23 -15 -25 -15 -31 0 -3 9 -4 28 -1 43 3 15 1 37 -4 50 -8 20 -15 23 -66 23 -32 0 -64 -4 -71 -8z"></path><path id="p13L4emsF8" d="M4241 3863 l-34 -4 7 -54 c7 -60 -4 -77 -33 -51 -25 22 -51 20 -51 -4 0 -11 6 -20 14 -20 18 0 26 -31 26 -103 0 -55 1 -57 20 -47 19 10 20 8 20 -75 l0 -85 80 0 80 0 -2 223 -3 222 -45 1 c-25 1 -60 -1 -79 -3z"></path><path id="pKxDSHkVD" d="M3080 3580 c0 -19 7 -20 210 -20 203 0 210 1 210 20 0 19 -7 20 -210 20 -203 0 -210 -1 -210 -20z"></path><path id="p6emfvACz" d="M1221 3496 c-67 -125 -154 -253 -235 -348 -121 -142 -318 -293 -496 -383 -107 -54 -308 -123 -385 -133 -32 -4 -60 -13 -63 -20 -3 -10 227 -12 1145 -10 l1148 3 3 260 c2 143 0 365 -3 493 l-7 232 -528 0 -528 0 -51 -94z"></path><path id="p14GmvFjIt" d="M4410 3095 l0 -495 850 0 c468 0 850 2 850 4 0 2 -25 23 -56 46 -87 66 -249 235 -335 350 -122 163 -204 336 -252 530 l-13 55 -522 3 -522 2 0 -495z"></path><path id="p15hYhyAOQ" d="M2570 3278 c-19 -20 -19 -23 -5 -26 32 -7 65 8 65 28 0 27 -34 26 -60 -2z"></path><path id="p1AMURiP6z" d="M2551 3141 c7 -10 20 -23 30 -30 17 -10 19 -8 19 19 0 27 -3 30 -30 30 -27 0 -29 -2 -19 -19z"></path><path id="pGWWuHQS9" d="M2572 2678 c-19 -19 -14 -28 18 -28 23 0 30 4 30 20 0 23 -29 27 -48 8z"></path><path id="psuzX56w8" d="M3270 2176 c0 -9 14 -31 30 -49 17 -19 30 -37 30 -41 0 -3 -16 -24 -35 -45 -46 -51 -104 -65 -229 -59 -98 6 -170 28 -239 74 -40 26 -40 26 -181 20 -78 -4 -213 -11 -301 -16 -88 -6 -290 -17 -450 -25 -159 -8 -423 -21 -585 -30 -162 -8 -423 -22 -580 -30 -157 -8 -319 -15 -359 -15 -46 0 -71 -4 -65 -9 9 -9 137 -18 709 -46 477 -24 1036 -53 1488 -76 l418 -22 127 32 c70 17 148 34 173 37 l46 6 7 -38 c14 -78 9 -74 106 -74 l88 0 11 30 c5 17 8 36 6 43 -3 7 -1 19 4 27 8 12 22 12 96 2 48 -7 122 -24 166 -38 78 -25 81 -25 261 -15 101 6 318 17 483 26 165 8 383 19 485 25 102 5 329 17 505 25 176 9 388 20 470 26 83 6 227 12 320 15 94 3 176 7 184 10 36 12 -13 19 -147 22 -81 1 -174 5 -207 7 -33 3 -249 14 -480 25 -231 12 -625 32 -875 45 -731 39 -787 41 -808 22 -33 -30 -135 -68 -214 -80 -102 -15 -192 0 -242 38 -52 39 -56 69 -17 107 17 17 30 36 28 42 -2 7 -45 12 -115 14 -94 2 -112 0 -112 -12z"></path></g></g><g id="l7fgW8vXp2W4C0TQ6XBGVix" fill="rgb(197,3,2)" style="transform: none; --darkreader-inline-fill: #fd4443;" data-darkreader-inline-fill=""><g style="transform: none;"><path id="prnevewne" d="M3949 4743 c-38 -6 -52 -26 -94 -129 -20 -51 -42 -99 -48 -109 -11 -14 -94 -41 -103 -32 -8 8 -6 189 2 197 5 5 20 10 33 12 26 3 50 32 38 45 -9 9 -282 11 -291 2 -11 -10 5 -38 25 -44 39 -13 44 -41 47 -276 l4 -227 -39 -18 c-25 -13 -38 -26 -38 -39 0 -19 7 -20 190 -20 267 0 313 17 341 124 21 83 -13 156 -87 185 -38 15 -40 18 -26 34 8 9 39 55 67 102 29 47 70 102 92 122 22 20 38 43 36 50 -7 21 -81 32 -149 21z m-118 -372 c24 -24 29 -38 29 -76 0 -38 -5 -52 -29 -76 -25 -24 -38 -29 -79 -29 l-49 0 -7 46 c-8 59 -8 128 0 148 4 12 20 16 56 16 41 0 54 -5 79 -29z"></path><path id="p1Ds315G7U" d="M4369 4740 c-84 -15 -128 -48 -171 -130 -20 -40 -23 -59 -23 -165 0 -111 2 -125 29 -182 33 -72 94 -134 152 -154 24 -9 80 -14 144 -14 89 0 111 4 148 23 90 48 127 143 120 308 -3 82 -8 101 -38 160 -39 75 -96 127 -158 143 -57 15 -152 20 -203 11z m175 -101 c43 -34 56 -72 63 -177 7 -128 -7 -200 -51 -247 -30 -31 -39 -35 -84 -35 -66 0 -114 38 -131 104 -16 63 -14 203 4 262 14 47 52 95 85 107 35 13 88 6 114 -14z"></path><path id="pHozumbmr" d="M4968 4741 c-32 -5 -69 -16 -84 -26 -23 -15 -26 -22 -21 -53 9 -53 18 -57 81 -33 113 42 231 38 256 -10 32 -59 -5 -100 -128 -139 -165 -53 -209 -98 -200 -206 12 -137 145 -205 351 -180 70 9 87 22 94 74 7 55 -4 58 -98 32 -103 -28 -163 -27 -194 5 -29 28 -30 36 -11 74 20 38 47 54 146 84 104 32 144 59 171 115 23 47 21 99 -6 152 -21 40 -79 88 -122 99 -56 15 -170 21 -235 12z"></path><path id="pACC37Eue" d="M2594 3760 c-27 -11 -34 -29 -41 -106 -7 -77 -1 -82 127 -91 l91 -6 -3 -126 -3 -126 -87 -5 c-77 -4 -91 -8 -113 -31 -14 -14 -28 -42 -32 -63 -5 -33 -2 -41 28 -72 23 -24 42 -34 63 -34 17 0 55 -3 84 -7 l52 -6 -2 -194 -3 -194 -75 -3 c-89 -3 -112 -13 -135 -62 -20 -42 -15 -72 19 -111 l24 -28 249 -5 248 -5 5 -81 c5 -83 22 -124 60 -144 12 -6 107 -11 236 -13 l215 -2 35 37 c33 37 34 40 34 123 l0 85 249 0 249 0 26 31 c35 41 40 69 23 112 -19 45 -36 54 -125 62 l-72 8 0 192 0 192 71 5 c63 5 75 9 102 37 42 41 43 100 3 139 -23 23 -36 27 -101 30 l-75 4 0 113 c0 62 3 120 6 129 4 11 19 16 53 16 25 0 63 5 84 11 l37 10 0 74 c0 127 87 115 -812 114 -425 0 -782 -4 -794 -9z m1188 -200 l128 0 0 -130 0 -130 -518 0 c-285 0 -521 2 -523 4 -2 2 -3 61 -1 130 l3 125 122 4 c67 2 243 3 391 1 148 -2 327 -4 398 -4z m130 -661 c2 -105 0 -193 -3 -195 -3 -2 -237 -4 -520 -4 l-514 -1 -3 195 -2 196 519 0 520 0 3 -191z"></path></g></g></svg>
