<svg xmlns="http://www.w3.org/2000/svg" id="outputsvg" width="200" class="img-fluid" style="transform:none;transform-origin:50% 50% 0;cursor:move" height="200" viewBox="0 0 2000 2000"><g id="l2iSmOMkD2rU0oz1AEpepf" fill="#20405F" style="transform:none"><g><path id="p15WmIjomq" d="M816 1975 c-311 -65 -564 -259 -704 -540 -79 -159 -108 -300 -99 -488 12 -254 108 -471 291 -652 254 -251 600 -347 941 -260 480 121 807 594 745 1075 -30 230 -123 422 -285 586 -128 129 -259 206 -440 260 -113 33 -337 42 -449 19z m157 -330 c-3 -19 -9 -38 -13 -40 -14 -8 -21 75 -9 97 l12 22 8 -21 c4 -12 5 -38 2 -58z m-228 15 l40 -19 -35 6 c-19 3 -60 14 -90 24 l-55 19 50 -6 c28 -3 68 -14 90 -24z m-60 -140 c8 -13 -1 -13 -26 0 -10 6 -19 15 -19 21 0 11 35 -5 45 -21z m-187 -36 c29 -14 51 -28 49 -31 -6 -5 -167 56 -167 64 0 11 66 -8 118 -33z m471 -108 c-9 -8 -10 -2 -5 29 3 22 7 49 8 60 1 11 3 -2 5 -29 3 -30 0 -53 -8 -60z m-159 -109 c7 -25 10 -52 7 -59 -7 -18 -35 50 -43 104 -6 41 -5 42 9 22 9 -11 21 -42 27 -67z m-164 -83 c6 -47 -10 -27 -21 26 -5 26 -4 32 4 24 7 -6 14 -28 17 -50z"/></g></g><g id="l1nGyWkPTlF2tLAlyKDck2F" fill="#FFF" style="transform:none"><g><path id="ppkdeIemY" d="M930 1743 c-18 -23 -21 -38 -18 -84 l4 -56 -41 32 c-79 59 -139 79 -247 80 -64 0 -101 -4 -109 -12 -20 -20 82 -60 243 -94 79 -17 144 -32 146 -34 2 -2 -17 -13 -42 -24 -26 -11 -85 -45 -132 -76 l-85 -56 -50 45 c-28 25 -75 54 -107 66 -66 25 -181 37 -207 23 -16 -9 -14 -14 24 -41 51 -37 179 -88 262 -105 l60 -12 -43 -42 -43 -42 -50 15 c-55 17 -188 15 -206 -3 -20 -20 78 -48 162 -47 l77 0 -33 -50 c-36 -56 -32 -55 -136 -35 -54 10 -72 10 -99 -1 l-32 -13 28 -16 c19 -10 57 -15 110 -15 l81 -1 -25 -52 c-24 -48 -28 -52 -51 -45 -40 11 -114 7 -141 -8 -25 -14 -25 -14 20 -22 25 -5 67 -7 93 -5 l48 4 -29 -31 c-46 -48 -62 -89 -68 -173 l-5 -78 40 43 c41 45 60 99 62 185 l1 42 8 -47 c9 -55 48 -124 61 -111 13 13 -7 110 -31 151 l-20 34 40 71 40 72 0 -58 c0 -41 7 -72 25 -107 38 -75 55 -63 55 38 -1 43 -8 70 -30 111 l-29 54 30 41 c16 23 38 52 49 66 l20 25 -8 -35 c-16 -77 -8 -152 23 -207 17 -29 33 -53 36 -53 11 0 19 43 19 108 0 45 -7 80 -25 122 -14 33 -25 66 -25 74 0 8 21 33 48 56 l47 42 8 -73 c4 -41 12 -96 18 -124 11 -54 58 -150 74 -150 6 0 14 29 19 64 13 89 -3 157 -54 233 -31 47 -38 63 -28 70 19 14 149 74 177 83 21 6 23 5 17 -11 -16 -42 -28 -132 -23 -180 6 -55 32 -118 46 -110 12 8 31 112 33 183 1 46 -4 69 -20 96 l-21 36 107 35 c59 20 157 47 217 62 61 14 113 31 117 38 14 21 9 38 -9 32 -9 -4 -82 -25 -162 -47 -80 -21 -163 -46 -184 -54 -20 -8 -41 -15 -45 -15 -4 0 -6 21 -4 47 5 87 -37 128 -78 76z"/><path id="p13aaCm74C" d="M610 1572 c-21 -17 -22 -20 -7 -49 27 -52 115 -70 131 -27 9 24 -20 63 -59 80 -42 17 -38 18 -65 -4z"/><path id="pw3bxF8yg" d="M1355 1121 c-140 -42 -272 -113 -364 -196 -22 -20 -44 -34 -49 -31 -5 3 -20 30 -32 61 -21 52 -41 68 -55 45 -4 -6 8 -41 25 -79 l32 -69 -45 -64 c-24 -35 -62 -97 -82 -138 -44 -87 -97 -238 -89 -252 15 -25 37 4 64 84 36 106 78 193 134 272 35 50 42 56 51 41 26 -44 103 -145 148 -192 l49 -52 -35 -41 c-71 -84 -130 -227 -105 -258 16 -19 30 -1 45 60 15 59 64 146 103 183 l26 25 69 -53 c81 -61 211 -131 225 -122 23 14 5 32 -71 74 -82 45 -182 115 -187 130 -5 14 131 99 200 127 74 30 80 35 69 53 -7 11 -15 11 -47 1 -60 -20 -133 -58 -200 -106 l-62 -43 -54 57 c-54 58 -115 137 -138 181 -11 21 -8 27 22 58 77 81 218 158 373 204 60 18 91 32 93 43 5 21 -34 20 -113 -3z"/><path id="pPKgwVT2t" d="M505 740 c-15 -24 115 -220 146 -220 27 0 18 34 -20 75 -22 24 -53 69 -68 100 -26 52 -44 67 -58 45z"/><path id="pxDFFCIXf" d="M817 414 c-4 -4 -7 -12 -7 -19 0 -13 100 -75 122 -75 37 0 26 21 -28 55 -68 43 -78 48 -87 39z"/><path id="pBvGuTWWL" d="M1097 284 c-15 -16 -5 -33 26 -44 49 -17 194 -24 271 -12 73 12 97 25 80 42 -8 8 -38 7 -101 0 -84 -10 -210 -3 -254 14 -8 4 -18 3 -22 0z"/></g></g></svg>