<?xml version="1.0" encoding="UTF-8"?>
<!DOCTYPE svg PUBLIC "-//W3C//DTD SVG 1.1//EN" "http://www.w3.org/Graphics/SVG/1.1/DTD/svg11.dtd">
<svg xmlns="http://www.w3.org/2000/svg" version="1.1" width="1123px" height="1123px" style="shape-rendering:geometricPrecision; text-rendering:geometricPrecision; image-rendering:optimizeQuality; fill-rule:evenodd; clip-rule:evenodd" xmlns:xlink="http://www.w3.org/1999/xlink">
<g><path style="opacity:0.987" fill="#86c56b" d="M -0.5,605.5 C -0.5,600.5 -0.5,595.5 -0.5,590.5C 5.78818,546.971 31.1215,525.971 75.5,527.5C 82.6379,491.875 104.471,473.875 141,473.5C 148.338,473.268 155.505,474.268 162.5,476.5C 184.856,443.217 215.189,433.383 253.5,447C 270.312,454.646 284.312,465.813 295.5,480.5C 282.179,481.666 268.846,481.833 255.5,481C 247.224,472.848 237.224,468.682 225.5,468.5C 201.014,468.635 186.514,480.635 182,504.5C 181.003,510.461 180.337,516.461 180,522.5C 165.512,504.996 147.345,499.163 125.5,505C 101.958,516.771 93.9578,535.438 101.5,561C 101.167,561.5 100.833,562 100.5,562.5C 87.9164,557.726 74.9164,555.893 61.5,557C 46.0946,559.073 36.2612,567.573 32,582.5C 25.6533,614.968 38.4867,635.468 70.5,644C 154.17,643.954 237.836,644.121 321.5,644.5C 311.298,659.954 296.964,669.454 278.5,673C 207.833,673.667 137.167,673.667 66.5,673C 40.3831,667.883 20.5498,654.05 7,631.5C 3.33717,623.029 0.837174,614.362 -0.5,605.5 Z"/></g>
<g><path style="opacity:0.972" fill="#fefffe" d="M 732.5,492.5 C 760.305,489.911 782.639,499.577 799.5,521.5C 793.309,526.852 786.809,531.852 780,536.5C 764.48,517.592 745.314,512.759 722.5,522C 701.735,534.04 693.901,551.873 699,575.5C 708.65,600.579 726.816,611.079 753.5,607C 765.111,603.953 774.611,597.786 782,588.5C 788.949,592.388 795.449,596.888 801.5,602C 787.31,622.433 767.643,632.933 742.5,633.5C 704.658,630.491 681.492,610.491 673,573.5C 670.509,529.856 690.342,502.856 732.5,492.5 Z"/></g>
<g><path style="opacity:0.974" fill="#fefffe" d="M 866.5,492.5 C 901.828,490.071 926.994,504.737 942,536.5C 953.486,572.374 943.986,601.207 913.5,623C 876.191,641.339 844.357,634.506 818,602.5C 805.423,581.652 803.09,559.652 811,536.5C 822.033,512.289 840.533,497.623 866.5,492.5 Z M 868.5,517.5 C 895.512,515.748 913.012,527.748 921,553.5C 923.69,585.979 908.857,604.312 876.5,608.5C 853.067,606.383 838.234,594.05 832,571.5C 829.737,543.618 841.904,525.618 868.5,517.5 Z"/></g>
<g><path style="opacity:0.298" fill="#364336" d="M 258.5,496.5 C 269.995,495.833 281.662,495.5 293.5,495.5C 305.52,495.501 317.186,496.168 328.5,497.5C 305.242,496.511 281.908,496.177 258.5,496.5 Z"/></g>
<g><path style="opacity:0.774" fill="#fefffe" d="M 1102.5,495.5 C 1111.13,494.473 1116.46,498.14 1118.5,506.5C 1116.42,515.551 1110.75,519.051 1101.5,517C 1094.3,512.672 1092.8,506.838 1097,499.5C 1098.81,498.023 1100.65,496.69 1102.5,495.5 Z M 1100.5,500.5 C 1107.99,496.575 1112.99,498.742 1115.5,507C 1114.89,509.058 1113.89,510.891 1112.5,512.5C 1109.04,509.973 1108.7,507.14 1111.5,504C 1111.24,502.739 1110.57,501.739 1109.5,501C 1106.52,500.502 1103.52,500.335 1100.5,500.5 Z M 1100.5,500.5 C 1100.5,504.5 1100.5,508.5 1100.5,512.5C 1096.5,508.5 1096.5,504.5 1100.5,500.5 Z M 1103.5,503.5 C 1105.2,503.34 1106.87,503.506 1108.5,504C 1106.42,506.139 1104.75,505.972 1103.5,503.5 Z M 1103.5,508.5 C 1104.68,508.281 1105.68,508.614 1106.5,509.5C 1107.49,511.323 1108.82,512.823 1110.5,514C 1104.14,516.55 1101.81,514.717 1103.5,508.5 Z"/></g>
<g><path style="opacity:1" fill="#3c8541" d="M 258.5,496.5 C 281.908,496.177 305.242,496.511 328.5,497.5C 328.5,504.833 328.5,512.167 328.5,519.5C 305.164,519.667 281.831,519.5 258.5,519C 257.173,511.402 257.173,503.902 258.5,496.5 Z"/></g>
<g><path style="opacity:0.966" fill="#fefffe" d="M 353.5,496.5 C 361.5,496.5 369.5,496.5 377.5,496.5C 377.5,532.5 377.5,568.5 377.5,604.5C 392.17,604.333 406.837,604.5 421.5,605C 422.482,613.081 422.816,621.248 422.5,629.5C 399.258,629.866 376.091,629.866 353,629.5C 352.173,585.096 352.339,540.762 353.5,496.5 Z"/></g>
<g><path style="opacity:0.975" fill="#fefffe" d="M 490.5,496.5 C 491.376,496.369 492.043,496.702 492.5,497.5C 514.167,541.5 535.833,585.5 557.5,629.5C 548.518,630.665 539.518,630.832 530.5,630C 525.229,620.124 520.229,610.124 515.5,600C 500.167,599.333 484.833,599.333 469.5,600C 464.705,609.757 460.038,619.591 455.5,629.5C 446.525,630.498 437.525,630.832 428.5,630.5C 449.161,585.844 469.827,541.178 490.5,496.5 Z M 491.5,552.5 C 495.726,559.948 499.726,567.615 503.5,575.5C 495.855,576.665 488.188,576.831 480.5,576C 484.853,568.461 488.52,560.628 491.5,552.5 Z"/></g>
<g><path style="opacity:0.966" fill="#fefffe" d="M 635.5,496.5 C 643.5,496.5 651.5,496.5 659.5,496.5C 659.667,540.835 659.5,585.168 659,629.5C 635.667,605.5 612.333,581.5 589,557.5C 588.5,581.498 588.333,605.498 588.5,629.5C 580.248,629.816 572.081,629.482 564,628.5C 563.167,584.83 563.333,541.163 564.5,497.5C 587.821,520.988 610.987,544.654 634,568.5C 634.177,544.428 634.677,520.428 635.5,496.5 Z"/></g>
<g><path style="opacity:0.971" fill="#fefffe" d="M 992.5,496.5 C 993.376,496.369 994.043,496.702 994.5,497.5C 1007.39,524.955 1020.56,552.289 1034,579.5C 1047.52,551.802 1061.02,524.136 1074.5,496.5C 1088.96,535.71 1103.13,575.043 1117,614.5C 1119.02,619.713 1120.52,625.046 1121.5,630.5C 1112.91,630.817 1104.41,630.483 1096,629.5C 1087.67,606.5 1079.33,583.5 1071,560.5C 1058.92,583.659 1046.59,606.659 1034,629.5C 1021.41,606.659 1009.08,583.659 997,560.5C 988.667,583.5 980.333,606.5 972,629.5C 967.748,630.152 963.415,630.486 959,630.5C 954.326,630.64 949.826,630.14 945.5,629C 961.862,585.08 977.529,540.913 992.5,496.5 Z"/></g>
<g><path style="opacity:0.298" fill="#394e38" d="M 258.5,533.5 C 281.661,532.502 304.994,532.169 328.5,532.5C 328.5,533.5 328.5,534.5 328.5,535.5C 305.396,533.526 282.063,532.859 258.5,533.5 Z"/></g>
<g><path style="opacity:1" fill="#3c8541" d="M 258.5,533.5 C 282.063,532.859 305.396,533.526 328.5,535.5C 328.5,541.833 328.5,548.167 328.5,554.5C 327.29,554.932 326.29,555.599 325.5,556.5C 303.164,556.667 280.831,556.5 258.5,556C 257.173,548.402 257.173,540.902 258.5,533.5 Z"/></g>
<g><path style="opacity:0.298" fill="#364536" d="M 328.5,554.5 C 328.179,556.048 327.179,556.715 325.5,556.5C 326.29,555.599 327.29,554.932 328.5,554.5 Z"/></g>
<g><path style="opacity:1" fill="#3c8841" d="M 257.5,569.5 C 281.167,569.5 304.833,569.5 328.5,569.5C 328.5,577.167 328.5,584.833 328.5,592.5C 304.833,592.5 281.167,592.5 257.5,592.5C 257.5,584.833 257.5,577.167 257.5,569.5 Z"/></g>
<g><path style="opacity:0.298" fill="#394c38" d="M 261.5,606.5 C 260.791,607.404 259.791,607.737 258.5,607.5C 258.5,614.833 258.5,622.167 258.5,629.5C 257.508,622.018 257.175,614.352 257.5,606.5C 258.833,606.5 260.167,606.5 261.5,606.5 Z"/></g>
<g><path style="opacity:1" fill="#3c8741" d="M 261.5,606.5 C 283.167,606.5 304.833,606.5 326.5,606.5C 326.833,607.5 327.5,608.167 328.5,608.5C 328.5,615.5 328.5,622.5 328.5,629.5C 305.167,629.5 281.833,629.5 258.5,629.5C 258.5,622.167 258.5,614.833 258.5,607.5C 259.791,607.737 260.791,607.404 261.5,606.5 Z"/></g>
<g><path style="opacity:0.612" fill="#313932" d="M 326.5,606.5 C 327.833,606.5 328.5,607.167 328.5,608.5C 327.5,608.167 326.833,607.5 326.5,606.5 Z"/></g>
<g><path style="opacity:0.845" fill="#fefffe" d="M 674.5,642.5 C 676.5,642.5 678.5,642.5 680.5,642.5C 680.334,652.506 680.5,662.506 681,672.5C 683.016,673.955 683.849,675.955 683.5,678.5C 678.73,679.535 675.564,677.869 674,673.5C 673.192,663.09 673.359,652.757 674.5,642.5 Z"/></g>
<g><path style="opacity:0.874" fill="#fefffe" d="M 756.5,642.5 C 758.5,642.5 760.5,642.5 762.5,642.5C 762.832,654.186 762.499,665.852 761.5,677.5C 743.634,681.801 737.134,675.135 742,657.5C 745.735,653.904 750.235,652.571 755.5,653.5C 755.244,649.731 755.577,646.064 756.5,642.5 Z M 750.5,658.5 C 752.117,659.038 753.784,659.371 755.5,659.5C 755.5,664.167 755.5,668.833 755.5,673.5C 747.902,673.666 745.069,669.999 747,662.5C 747.69,660.65 748.856,659.316 750.5,658.5 Z"/></g>
<g><path style="opacity:0.884" fill="#fefffe" d="M 1068.5,642.5 C 1070.5,642.5 1072.5,642.5 1074.5,642.5C 1074.67,654.171 1074.5,665.838 1074,677.5C 1055.11,681.937 1048.77,674.937 1055,656.5C 1055.9,655.299 1057.07,654.465 1058.5,654C 1061.48,653.502 1064.48,653.335 1067.5,653.5C 1067.24,649.731 1067.58,646.064 1068.5,642.5 Z M 1062.5,658.5 C 1063.93,658.421 1065.26,658.754 1066.5,659.5C 1067.49,664.12 1067.83,668.786 1067.5,673.5C 1059.4,672.657 1056.9,668.324 1060,660.5C 1060.99,659.934 1061.83,659.267 1062.5,658.5 Z"/></g>
<g><path style="opacity:0.88" fill="#fefffe" d="M 873.5,643.5 C 878.675,642.507 880.509,644.507 879,649.5C 877,652.167 875,652.167 873,649.5C 872.322,647.402 872.489,645.402 873.5,643.5 Z"/></g>
<g><path style="opacity:0.873" fill="#fefffe" d="M 1041.5,643.5 C 1046.68,642.507 1048.51,644.507 1047,649.5C 1045,652.167 1043,652.167 1041,649.5C 1040.32,647.402 1040.49,645.402 1041.5,643.5 Z"/></g>
<g><path style="opacity:0.881" fill="#fefffe" d="M 356.5,645.5 C 365.634,643.788 373.467,646.121 380,652.5C 384.24,661.503 382.74,669.336 375.5,676C 373.913,676.862 372.246,677.529 370.5,678C 365.177,678.499 359.844,678.666 354.5,678.5C 353.891,667.245 354.558,656.245 356.5,645.5 Z M 361.5,651.5 C 373.403,651.273 377.57,656.94 374,668.5C 370.613,672.039 366.447,673.372 361.5,672.5C 361.5,665.5 361.5,658.5 361.5,651.5 Z"/></g>
<g><path style="opacity:0.894" fill="#fefffe" d="M 474.5,645.5 C 478.514,645.334 482.514,645.501 486.5,646C 490.33,647.838 490.497,650.005 487,652.5C 474.098,649.402 469.098,654.402 472,667.5C 473.588,671.253 476.421,673.253 480.5,673.5C 483.157,672.534 485.824,672.034 488.5,672C 491.088,674.768 490.755,676.768 487.5,678C 469.947,681.449 462.447,674.282 465,656.5C 466.599,651.406 469.766,647.739 474.5,645.5 Z"/></g>
<g><path style="opacity:0.896" fill="#fefffe" d="M 654.5,645.5 C 658.182,645.335 661.848,645.501 665.5,646C 670.149,647.373 670.649,649.873 667,653.5C 657.732,649.051 652.232,651.884 650.5,662C 652.099,672.37 657.766,675.537 667.5,671.5C 669.967,673.79 669.967,675.957 667.5,678C 649.379,681.213 641.879,673.713 645,655.5C 647.022,650.98 650.189,647.647 654.5,645.5 Z"/></g>
<g><path style="opacity:0.89" fill="#fefffe" d="M 783.5,645.5 C 787.182,645.335 790.848,645.501 794.5,646C 798.996,647.152 799.329,649.319 795.5,652.5C 792.227,651.415 788.894,651.248 785.5,652C 784.167,653.667 784.167,655.333 785.5,657C 789.167,658.667 792.833,660.333 796.5,662C 802.418,672.331 799.418,678.164 787.5,679.5C 783.482,679.269 779.816,678.102 776.5,676C 777.05,674.155 778.05,672.655 779.5,671.5C 783.481,673.605 787.481,673.772 791.5,672C 792.935,669.733 792.602,667.733 790.5,666C 787.911,664.803 785.244,663.803 782.5,663C 777.931,660.459 776.431,656.625 778,651.5C 779.36,648.977 781.193,646.977 783.5,645.5 Z"/></g>
<g><path style="opacity:0.894" fill="#fefffe" d="M 946.5,645.5 C 951.599,645.175 956.599,645.675 961.5,647C 967.025,649.919 968.858,654.419 967,660.5C 966.215,662.286 965.049,663.786 963.5,665C 959.379,666.899 955.046,667.732 950.5,667.5C 950.5,671.167 950.5,674.833 950.5,678.5C 948.167,678.5 945.833,678.5 943.5,678.5C 943.5,667.833 943.5,657.167 943.5,646.5C 944.791,646.737 945.791,646.404 946.5,645.5 Z M 950.5,651.5 C 953.93,651.107 957.096,651.773 960,653.5C 960.758,655.769 960.591,657.936 959.5,660C 956.607,661.149 953.607,661.649 950.5,661.5C 950.5,658.167 950.5,654.833 950.5,651.5 Z"/></g>
<g><path style="opacity:0.85" fill="#fefffe" d="M 413.5,646.5 C 414.833,646.5 416.167,646.5 417.5,646.5C 417.5,648.833 417.5,651.167 417.5,653.5C 420.167,653.5 422.833,653.5 425.5,653.5C 425.5,655.5 425.5,657.5 425.5,659.5C 422.833,659.5 420.167,659.5 417.5,659.5C 417.174,663.884 417.508,668.217 418.5,672.5C 420.834,673.482 423.168,673.649 425.5,673C 426.554,674.388 426.72,675.888 426,677.5C 421.611,679.897 417.278,679.563 413,676.5C 412.138,674.913 411.471,673.246 411,671.5C 410.5,663.507 410.334,655.507 410.5,647.5C 411.791,647.737 412.791,647.404 413.5,646.5 Z"/></g>
<g><path style="opacity:0.857" fill="#fefffe" d="M 548.5,646.5 C 549.833,646.5 551.167,646.5 552.5,646.5C 552.5,648.833 552.5,651.167 552.5,653.5C 555.167,653.5 557.833,653.5 560.5,653.5C 560.5,655.5 560.5,657.5 560.5,659.5C 557.833,659.5 555.167,659.5 552.5,659.5C 552.334,663.514 552.501,667.514 553,671.5C 553.804,672.804 554.971,673.471 556.5,673.5C 560.606,671.77 562.106,673.103 561,677.5C 556.611,679.897 552.278,679.563 548,676.5C 547.027,674.608 546.36,672.608 546,670.5C 545.5,662.841 545.334,655.174 545.5,647.5C 546.791,647.737 547.791,647.404 548.5,646.5 Z"/></g>
<g><path style="opacity:0.891" fill="#fefffe" d="M 388.5,653.5 C 392.514,653.334 396.514,653.501 400.5,654C 402.815,655.109 404.315,656.943 405,659.5C 405.667,665.5 405.667,671.5 405,677.5C 402.422,678.141 399.755,678.475 397,678.5C 387.413,679.913 383.746,675.913 386,666.5C 389.514,663.212 393.514,662.212 398,663.5C 398.783,661.567 398.283,660.067 396.5,659C 393.469,658.505 390.469,658.671 387.5,659.5C 387.325,657.379 387.659,655.379 388.5,653.5 Z M 394.5,667.5 C 395.833,667.5 397.167,667.5 398.5,667.5C 398.5,669.5 398.5,671.5 398.5,673.5C 396.208,673.756 394.041,673.423 392,672.5C 391.294,670.045 392.127,668.378 394.5,667.5 Z"/></g>
<g><path style="opacity:0.892" fill="#fefffe" d="M 431.5,653.5 C 444.18,650.474 449.847,655.308 448.5,668C 448.481,671.418 448.147,674.751 447.5,678C 442.5,678.667 437.5,678.667 432.5,678C 428.247,674.58 427.413,670.413 430,665.5C 433.782,663.049 437.782,662.382 442,663.5C 442.711,661.633 442.211,660.133 440.5,659C 437.469,658.505 434.469,658.671 431.5,659.5C 430.725,657.388 430.725,655.388 431.5,653.5 Z M 437.5,667.5 C 441.908,667.062 443.575,669.062 442.5,673.5C 439.635,673.945 437.135,673.278 435,671.5C 434.333,670.833 434.333,670.167 435,669.5C 435.995,668.934 436.828,668.267 437.5,667.5 Z"/></g>
<g><path style="opacity:0.909" fill="#fefffe" d="M 499.5,653.5 C 510.78,652.114 515.78,657.114 514.5,668.5C 509.5,668.5 504.5,668.5 499.5,668.5C 499.22,671.388 500.553,672.888 503.5,673C 506.507,673.301 509.507,673.135 512.5,672.5C 512.286,674.144 512.62,675.644 513.5,677C 498.123,682.065 491.29,676.565 493,660.5C 494.694,657.642 496.861,655.309 499.5,653.5 Z M 501.5,658.5 C 504.99,658.151 507.323,659.651 508.5,663C 505.518,663.498 502.518,663.665 499.5,663.5C 499.392,661.486 500.058,659.82 501.5,658.5 Z"/></g>
<g><path style="opacity:0.854" fill="#fefffe" d="M 521.5,653.5 C 525.846,653.334 530.179,653.501 534.5,654C 536.286,654.785 537.786,655.951 539,657.5C 540.384,664.411 540.884,671.411 540.5,678.5C 538.208,678.756 536.041,678.423 534,677.5C 533.667,671.833 533.333,666.167 533,660.5C 531.155,658.65 529.155,658.317 527,659.5C 526.667,665.5 526.333,671.5 526,677.5C 523.959,678.423 521.792,678.756 519.5,678.5C 518.912,669.897 519.578,661.564 521.5,653.5 Z"/></g>
<g><path style="opacity:0.907" fill="#fefffe" d="M 570.5,653.5 C 581.833,652.167 586.833,657.167 585.5,668.5C 580.456,668.173 575.456,668.506 570.5,669.5C 571.364,671.197 572.697,672.363 574.5,673C 577.578,672.934 580.578,673.101 583.5,673.5C 584.747,675.042 584.747,676.542 583.5,678C 572.076,681.629 565.409,677.629 563.5,666C 563.652,660.521 565.986,656.354 570.5,653.5 Z M 573.5,658.5 C 576.833,657.833 578.833,659.167 579.5,662.5C 576.5,663.833 573.5,663.833 570.5,662.5C 571.172,660.84 572.172,659.507 573.5,658.5 Z"/></g>
<g><path style="opacity:0.844" fill="#fefffe" d="M 593.5,653.5 C 597.514,653.334 601.514,653.501 605.5,654C 606.138,655.707 606.138,657.54 605.5,659.5C 602.932,658.55 600.432,658.55 598,659.5C 597.5,665.825 597.334,672.158 597.5,678.5C 595.208,678.756 593.041,678.423 591,677.5C 590.333,670.167 590.333,662.833 591,655.5C 591.995,654.934 592.828,654.267 593.5,653.5 Z"/></g>
<g><path style="opacity:0.921" fill="#fefffe" d="M 693.5,653.5 C 708.859,653.858 713.359,661.191 707,675.5C 698.853,681.295 692.186,679.962 687,671.5C 684.714,663.662 686.881,657.662 693.5,653.5 Z M 696.5,658.5 C 701.378,658.547 703.712,661.047 703.5,666C 702.931,672.696 699.764,674.53 694,671.5C 691.624,666.403 692.457,662.07 696.5,658.5 Z"/></g>
<g><path style="opacity:0.878" fill="#fefffe" d="M 714.5,653.5 C 716.5,653.5 718.5,653.5 720.5,653.5C 720.334,658.844 720.501,664.177 721,669.5C 722.318,672.941 724.818,674.275 728.5,673.5C 728.5,666.833 728.5,660.167 728.5,653.5C 730.792,653.244 732.959,653.577 735,654.5C 735.831,662.188 735.665,669.855 734.5,677.5C 729.403,679.108 724.403,679.275 719.5,678C 717.274,676.773 715.774,674.939 715,672.5C 714.5,666.175 714.334,659.842 714.5,653.5 Z"/></g>
<g><path style="opacity:0.905" fill="#fefffe" d="M 809.5,653.5 C 820.78,652.114 825.78,657.114 824.5,668.5C 819.5,668.5 814.5,668.5 809.5,668.5C 809.22,671.388 810.553,672.888 813.5,673C 816.507,673.301 819.507,673.135 822.5,672.5C 822.286,674.144 822.62,675.644 823.5,677C 817.056,680.416 810.889,679.916 805,675.5C 800.462,666.708 801.962,659.375 809.5,653.5 Z M 811.5,658.5 C 814.99,658.151 817.323,659.651 818.5,663C 815.518,663.498 812.518,663.665 809.5,663.5C 809.392,661.486 810.058,659.82 811.5,658.5 Z"/></g>
<g><path style="opacity:0.849" fill="#fefffe" d="M 832.5,653.5 C 836.5,653.5 840.5,653.5 844.5,653.5C 844.5,655.5 844.5,657.5 844.5,659.5C 841.894,658.864 839.394,658.864 837,659.5C 836.667,665.5 836.333,671.5 836,677.5C 833.959,678.423 831.792,678.756 829.5,678.5C 829.5,670.5 829.5,662.5 829.5,654.5C 830.791,654.737 831.791,654.404 832.5,653.5 Z"/></g>
<g><path style="opacity:0.884" fill="#fefffe" d="M 846.5,653.5 C 848.604,653.201 850.604,653.534 852.5,654.5C 853.848,659.714 855.681,664.714 858,669.5C 859.667,664.5 861.333,659.5 863,654.5C 865.041,653.577 867.208,653.244 869.5,653.5C 867.524,661.79 864.69,669.79 861,677.5C 858.861,678.769 856.695,678.769 854.5,677.5C 850.426,669.945 847.759,661.945 846.5,653.5 Z"/></g>
<g><path style="opacity:0.825" fill="#fefffe" d="M 872.5,653.5 C 874.792,653.244 876.959,653.577 879,654.5C 879.667,662.167 879.667,669.833 879,677.5C 876.959,678.423 874.792,678.756 872.5,678.5C 872.5,670.167 872.5,661.833 872.5,653.5 Z"/></g>
<g><path style="opacity:0.902" fill="#fefffe" d="M 891.5,653.5 C 895.637,653.146 899.637,653.646 903.5,655C 902.751,659.306 900.418,660.473 896.5,658.5C 892.252,659.147 890.252,661.647 890.5,666C 890.439,668.261 891.106,670.261 892.5,672C 895.815,673.335 899.149,673.835 902.5,673.5C 903.747,675.042 903.747,676.542 902.5,678C 888,680.833 882.167,675 885,660.5C 886.694,657.642 888.861,655.309 891.5,653.5 Z"/></g>
<g><path style="opacity:0.905" fill="#fefffe" d="M 912.5,653.5 C 923.833,652.167 928.833,657.167 927.5,668.5C 922.456,668.173 917.456,668.506 912.5,669.5C 913.364,671.197 914.697,672.363 916.5,673C 919.578,672.934 922.578,673.101 925.5,673.5C 927.087,675.446 926.754,676.946 924.5,678C 913.411,681.297 907.077,677.297 905.5,666C 905.652,660.521 907.986,656.354 912.5,653.5 Z M 915.5,658.5 C 918.504,658.335 920.504,659.668 921.5,662.5C 918.572,663.484 915.572,663.817 912.5,663.5C 912.31,661.041 913.31,659.374 915.5,658.5 Z"/></g>
<g><path style="opacity:0.846" fill="#fefffe" d="M 974.5,653.5 C 978.514,653.334 982.514,653.501 986.5,654C 986.854,655.626 986.854,657.459 986.5,659.5C 983.932,658.55 981.432,658.55 979,659.5C 978.5,665.825 978.334,672.158 978.5,678.5C 976.208,678.756 974.041,678.423 972,677.5C 971.333,670.167 971.333,662.833 972,655.5C 972.995,654.934 973.828,654.267 974.5,653.5 Z"/></g>
<g><path style="opacity:0.895" fill="#fefffe" d="M 995.5,653.5 C 1009.98,652.759 1015.15,659.425 1011,673.5C 1004.65,681.07 997.982,681.403 991,674.5C 987.038,666.243 988.538,659.243 995.5,653.5 Z M 999.5,658.5 C 1003.69,659.19 1006.02,661.69 1006.5,666C 1006.27,669.989 1004.27,672.489 1000.5,673.5C 996.989,672.331 995.323,669.831 995.5,666C 995.43,662.634 996.763,660.134 999.5,658.5 Z"/></g>
<g><path style="opacity:0.883" fill="#fefffe" d="M 1014.5,653.5 C 1016.6,653.201 1018.6,653.534 1020.5,654.5C 1022.23,659.538 1024.07,664.538 1026,669.5C 1028.07,664.637 1029.73,659.637 1031,654.5C 1033.04,653.577 1035.21,653.244 1037.5,653.5C 1035.57,661.794 1032.73,669.794 1029,677.5C 1026.96,678.423 1024.79,678.756 1022.5,678.5C 1020.35,672.865 1018.19,667.198 1016,661.5C 1015.18,658.883 1014.68,656.216 1014.5,653.5 Z"/></g>
<g><path style="opacity:0.825" fill="#fefffe" d="M 1041.5,653.5 C 1043.5,653.5 1045.5,653.5 1047.5,653.5C 1047.5,661.833 1047.5,670.167 1047.5,678.5C 1045.21,678.756 1043.04,678.423 1041,677.5C 1040.2,669.421 1040.37,661.421 1041.5,653.5 Z"/></g>
<g><path style="opacity:0.905" fill="#fefffe" d="M 1086.5,653.5 C 1097.78,652.114 1102.78,657.114 1101.5,668.5C 1096.5,668.5 1091.5,668.5 1086.5,668.5C 1086.22,671.388 1087.55,672.888 1090.5,673C 1093.51,673.301 1096.51,673.135 1099.5,672.5C 1099.29,674.144 1099.62,675.644 1100.5,677C 1094.06,680.416 1087.89,679.916 1082,675.5C 1077.46,666.708 1078.96,659.375 1086.5,653.5 Z M 1088.5,658.5 C 1091.99,658.151 1094.32,659.651 1095.5,663C 1092.52,663.498 1089.52,663.665 1086.5,663.5C 1086.39,661.486 1087.06,659.82 1088.5,658.5 Z"/></g>
<g><path style="opacity:0.849" fill="#fefffe" d="M 1109.5,653.5 C 1113.5,653.5 1117.5,653.5 1121.5,653.5C 1121.5,655.5 1121.5,657.5 1121.5,659.5C 1118.89,658.864 1116.39,658.864 1114,659.5C 1113.67,665.5 1113.33,671.5 1113,677.5C 1110.96,678.423 1108.79,678.756 1106.5,678.5C 1106.5,670.5 1106.5,662.5 1106.5,654.5C 1107.79,654.737 1108.79,654.404 1109.5,653.5 Z"/></g>
<g><path style="opacity:0.833" fill="#fefffe" d="M 617.5,661.5 C 621.833,661.5 626.167,661.5 630.5,661.5C 630.5,663.5 630.5,665.5 630.5,667.5C 626.167,667.5 621.833,667.5 617.5,667.5C 617.5,665.5 617.5,663.5 617.5,661.5 Z"/></g>
</svg>
